HIERARCHY
ROOT Pelvis
{
	OFFSET 0.000000 0.000000 0.000000
	CHANNELS 6 Xposition Yposition Zposition Xrotation Yrotation Zrotation
	JOINT LeftUpLeg_virtual
	{
		OFFSET 0.000000 0.000000 0.000000
		CHANNELS 3 Xrotation Yrotation Zrotation
		JOINT LeftUpLeg
		{
			OFFSET 18.735201 -5.666702 -4.541200
			CHANNELS 3 Xrotation Yrotation Zrotation
			JOINT LeftLeg
			{
				OFFSET -0.021200 -31.938179 0.493100
				CHANNELS 3 Xrotation Yrotation Zrotation
				JOINT LeftFoot
				{
					OFFSET 0.021200 -31.938179 -4.336299
					CHANNELS 3 Xrotation Yrotation Zrotation
					JOINT LeftToeBase
					{
						OFFSET 0.943001 -26.722000 15.023500
						CHANNELS 3 Xrotation Yrotation Zrotation
						End Site
						{
							OFFSET 0 0 0
						}
					}
				}
			}
		}
	}
	JOINT RightUpLeg_virtual
	{
		OFFSET 0.000000 0.000000 0.000000
		CHANNELS 3 Xrotation Yrotation Zrotation
		JOINT RightUpLeg
		{
			OFFSET -18.735201 -5.666702 -4.541200
			CHANNELS 3 Xrotation Yrotation Zrotation
			JOINT RightLeg
			{
				OFFSET 0.018946 -31.938133 0.493100
				CHANNELS 3 Xrotation Yrotation Zrotation
				JOINT RightFoot
				{
					OFFSET -0.018946 -31.938126 -4.336299
					CHANNELS 3 Xrotation Yrotation Zrotation
					JOINT RightToeBase
					{
						OFFSET -0.943001 -26.722004 15.023500
						CHANNELS 3 Xrotation Yrotation Zrotation
						End Site
						{
							OFFSET 0 0 0
						}
					}
				}
			}
		}
	}
	JOINT Hips_virtual
	{
		OFFSET 0.000000 0.000000 0.000000
		CHANNELS 3 Xrotation Yrotation Zrotation
		JOINT Hips
		{
			OFFSET -0.000000 -0.000000 -0.000000
			CHANNELS 3 Xrotation Yrotation Zrotation
			JOINT Spine
			{
				OFFSET 0.000000 10.199997 -0.299500
				CHANNELS 3 Xrotation Yrotation Zrotation
				JOINT Spine1
				{
					OFFSET 0.000000 11.900002 -1.516600
					CHANNELS 3 Xrotation Yrotation Zrotation
					JOINT Spine2
					{
						OFFSET 0.000000 13.600006 -2.842500
						CHANNELS 3 Xrotation Yrotation Zrotation
						JOINT Neck_virtual
						{
							OFFSET 0.000000 0.000000 0.000000
							CHANNELS 3 Xrotation Yrotation Zrotation
							JOINT Neck
							{
								OFFSET 0.000000 9.624100 -2.890100
								CHANNELS 3 Xrotation Yrotation Zrotation
								JOINT Head
								{
									OFFSET 0.000000 14.068802 -1.351900
									CHANNELS 3 Xrotation Yrotation Zrotation
									End Site
									{
										OFFSET 0 0 0
									}
								}
							}
						}
						JOINT LeftShoulder_virtual
						{
							OFFSET 0.000000 0.000000 0.000000
							CHANNELS 3 Xrotation Yrotation Zrotation
							JOINT LeftShoulder
							{
								OFFSET 15.263000 10.923401 -0.547700
								CHANNELS 3 Xrotation Yrotation Zrotation
								JOINT LeftArm
								{
									OFFSET 25.438599 -2.830597 -13.032500
									CHANNELS 3 Xrotation Yrotation Zrotation
									JOINT LeftForeArm
									{
										OFFSET 29.960503 0.000000 0.000000
										CHANNELS 3 Xrotation Yrotation Zrotation
										JOINT LeftHand
										{
											OFFSET 27.849251 0.000000 0.000000
											CHANNELS 3 Xrotation Yrotation Zrotation
											End Site
											{
												OFFSET 0 0 0
											}
										}
									}
								}
							}
						}
						JOINT RightShoulder_virtual
						{
							OFFSET 0.000000 0.000000 0.000000
							CHANNELS 3 Xrotation Yrotation Zrotation
							JOINT RightShoulder
							{
								OFFSET -15.263000 10.923401 -0.547700
								CHANNELS 3 Xrotation Yrotation Zrotation
								JOINT RightArm
								{
									OFFSET -25.438599 -2.830597 -13.032500
									CHANNELS 3 Xrotation Yrotation Zrotation
									JOINT RightForeArm
									{
										OFFSET -29.960503 0.000000 0.000000
										CHANNELS 3 Xrotation Yrotation Zrotation
										JOINT RightHand
										{
											OFFSET -27.849251 0.000000 0.000000
											CHANNELS 3 Xrotation Yrotation Zrotation
											End Site
											{
												OFFSET 0 0 0
											}
										}
									}
								}
							}
						}
					}
				}
			}
		}
	}
}
MOTION
Frames: 10
Frame Time: 0.03333333
-9.720760 78.373215 12.765405 0.000000 0.000000 0.000000 -7.455931 -4.341735 4.104593 -53.979822 4.560236 23.045096 41.597426 -14.542328 -3.807868 -11.403122 -11.652923 -21.037346 0.000000 0.000000 0.000000 15.597147 -27.270138 0.052887 -10.876861 -14.229872 -19.515900 42.181684 8.579063 2.366736 -20.122707 0.273068 19.349806 0.000000 0.000000 0.000000 1.444108 -14.662693 3.254321 -11.543862 -28.857351 7.607822 34.422121 -5.236633 2.612934 23.459999 -3.553609 -1.408213 0.000000 0.000000 0.000000 12.914810 -1.335812 -0.752039 3.031597 -0.648800 1.923486 0.000000 0.000000 0.000000 17.429379 -2.658267 -0.258331 2.034348 -19.564160 1.222444 -32.840448 -8.923910 -32.532700 -7.597927 -57.799246 1.778773 0.000000 0.000000 0.000000 17.963044 1.645491 0.835354 3.270788 0.466410 6.720558 -26.953602 3.460644 20.018439 -21.163691 67.773201 18.093151 0.000000 0.000000 0.000000 
-9.355600 78.430573 12.327915 0.000000 0.000000 0.000000 -7.907528 -3.654499 3.674988 -54.454656 4.811363 22.666526 41.929667 -14.590691 -3.501634 -11.114625 -11.910114 -20.688990 0.000000 0.000000 0.000000 15.458461 -26.858792 -0.227455 -10.899531 -14.058786 -19.680109 41.124012 8.300060 2.471612 -20.454975 0.056789 19.242045 0.000000 0.000000 0.000000 1.469312 -14.307011 3.119909 -12.584020 -28.156521 6.265642 33.816687 -5.180104 2.602122 22.925387 -3.483605 -1.308974 0.000000 0.000000 0.000000 12.788623 -1.185495 -0.539948 2.958353 -0.574617 1.982362 0.000000 0.000000 0.000000 17.046451 -2.648979 -0.257256 1.958871 -19.329145 1.063456 -31.750356 -7.418860 -32.472379 -7.340153 -55.916317 1.805273 0.000000 0.000000 0.000000 17.577550 1.603610 0.792081 3.208729 0.535783 6.718727 -24.855198 3.531167 19.127752 -18.521619 67.483396 15.487681 0.000000 0.000000 0.000000 
-9.258924 78.685669 12.078814 0.000000 0.000000 0.000000 -8.341633 -3.028695 3.275225 -54.929939 5.041478 22.318080 42.311417 -14.637616 -3.214180 -10.787213 -12.159488 -20.374965 0.000000 0.000000 0.000000 15.328051 -26.498800 -0.438190 -10.942188 -13.909515 -19.789686 40.099327 7.967962 2.584477 -20.783770 -0.207525 19.114416 0.000000 0.000000 0.000000 1.571092 -14.014087 3.011954 -13.026428 -27.325365 5.192248 33.121356 -5.119357 2.578986 22.361795 -3.401835 -1.210184 0.000000 0.000000 0.000000 12.604289 -1.116859 -0.438340 2.869483 -0.528280 1.971300 0.000000 0.000000 0.000000 16.597343 -2.689566 -0.261721 1.897831 -19.243380 0.920574 -30.637039 -6.237069 -32.398719 -6.995070 -54.111112 1.843812 0.000000 0.000000 0.000000 17.080008 1.537500 0.793094 3.126050 0.563802 6.759915 -22.966617 3.238541 18.469764 -16.163206 66.850244 13.196955 0.000000 0.000000 0.000000 
-9.194082 78.939056 11.524363 0.000000 0.000000 0.000000 -8.730069 -2.500379 2.908463 -55.358864 5.246251 21.995827 42.730043 -14.670917 -2.943502 -10.417457 -12.391721 -20.079844 0.000000 0.000000 0.000000 15.212966 -26.273173 -0.636761 -10.980596 -13.794535 -19.910249 39.157246 7.611177 2.683024 -21.068431 -0.481636 18.967049 0.000000 0.000000 0.000000 1.628900 -13.905072 2.888469 -13.432981 -26.575199 4.081263 32.361453 -5.068502 2.514419 21.756587 -3.332086 -1.142183 0.000000 0.000000 0.000000 12.408871 -1.084653 -0.406953 2.785999 -0.488257 1.915712 0.000000 0.000000 0.000000 16.097113 -2.741327 -0.275521 1.852159 -19.164840 0.805553 -29.414630 -5.248166 -32.360333 -6.569689 -52.337370 1.868461 0.000000 0.000000 0.000000 16.541962 1.450113 0.770768 3.077931 0.580702 6.654779 -21.252861 2.730064 17.940161 -14.135534 66.071862 11.243775 0.000000 0.000000 0.000000 
-8.997669 79.223984 10.994545 0.000000 0.000000 0.000000 -9.111154 -2.154885 2.567628 -55.812614 5.398529 21.705612 43.223353 -14.715069 -2.692352 -10.004133 -12.627639 -19.829976 0.000000 0.000000 0.000000 15.075235 -26.217350 -0.771554 -11.105655 -13.728393 -20.005665 38.269570 7.202926 2.775394 -21.333850 -0.794676 18.788710 0.000000 0.000000 0.000000 1.657740 -13.692391 2.769878 -13.575165 -25.459580 3.178995 31.502058 -4.936150 2.406025 21.084268 -3.223733 -1.095843 0.000000 0.000000 0.000000 12.111186 -0.984943 -0.369931 2.667052 -0.404963 1.865413 0.000000 0.000000 0.000000 15.532815 -2.767985 -0.298009 1.813938 -19.013913 0.732325 -28.434672 -4.279493 -32.398121 -6.261038 -50.576632 1.771090 0.000000 0.000000 0.000000 15.884500 1.373762 0.747934 2.979690 0.645951 6.551479 -19.645499 2.019360 17.669701 -12.400015 65.095883 9.638783 0.000000 0.000000 0.000000 
-8.808069 79.385185 10.841398 0.000000 0.000000 0.000000 -9.422183 -1.921107 2.271476 -56.226059 5.521497 21.472619 43.761702 -14.750154 -2.454311 -9.535457 -12.858799 -19.603171 0.000000 0.000000 0.000000 14.942181 -26.325627 -0.893921 -11.250805 -13.713730 -20.139214 37.453783 6.811658 2.852335 -21.568619 -1.090405 18.612436 0.000000 0.000000 0.000000 1.671405 -13.600488 2.646232 -13.563396 -24.452547 2.288330 30.532694 -4.778301 2.282095 20.324517 -3.084137 -1.064348 0.000000 0.000000 0.000000 11.685775 -0.878968 -0.361208 2.491263 -0.312728 1.798272 0.000000 0.000000 0.000000 14.841993 -2.796143 -0.339314 1.691261 -18.878976 0.608850 -27.929912 -3.545056 -32.770787 -6.202788 -49.154747 1.410259 0.000000 0.000000 0.000000 15.144034 1.303552 0.722193 2.840255 0.801973 6.419384 -18.331394 1.249853 17.783002 -11.184676 64.173363 8.592200 0.000000 0.000000 0.000000 
-8.508368 79.422607 10.374666 0.000000 0.000000 0.000000 -9.591828 -1.938344 2.045879 -56.502132 5.584075 21.310156 44.429127 -14.769079 -2.199435 -8.940494 -13.097417 -19.354400 0.000000 0.000000 0.000000 14.828023 -26.585656 -1.002383 -11.377304 -13.745039 -20.291008 36.723038 6.430270 2.908560 -21.742162 -1.363842 18.431633 0.000000 0.000000 0.000000 1.642117 -13.707541 2.536698 -13.476299 -23.658816 1.571521 29.611360 -4.538234 2.127408 19.596981 -2.907354 -1.038973 0.000000 0.000000 0.000000 11.207879 -0.740253 -0.324501 2.305170 -0.200595 1.749393 0.000000 0.000000 0.000000 14.070459 -2.792573 -0.396360 1.544148 -18.624983 0.509221 -27.466025 -2.907688 -33.165753 -6.104785 -47.842832 1.050734 0.000000 0.000000 0.000000 14.316255 1.272986 0.686604 2.656586 1.133858 6.281173 -17.238072 0.379116 18.075669 -10.239330 63.105777 7.831851 0.000000 0.000000 0.000000 
-8.370609 79.519974 9.956661 0.000000 0.000000 0.000000 -9.640506 -2.012446 1.842108 -56.675199 5.651652 21.185596 45.226234 -14.780126 -1.974234 -8.238035 -13.328599 -19.162196 0.000000 0.000000 0.000000 14.679683 -26.926791 -1.113122 -11.557086 -13.795496 -20.461608 36.222785 6.085789 2.937409 -21.781050 -1.588592 18.263209 0.000000 0.000000 0.000000 1.592309 -13.931682 2.441481 -13.422882 -23.001615 0.802395 28.601754 -4.224889 1.909543 18.809036 -2.689089 -1.037380 0.000000 0.000000 0.000000 10.548646 -0.539421 -0.284028 2.036919 -0.056289 1.708596 0.000000 0.000000 0.000000 13.231281 -2.731813 -0.484810 1.359636 -18.233111 0.348389 -27.013856 -2.284189 -33.762107 -6.038730 -46.575610 0.603157 0.000000 0.000000 0.000000 13.358663 1.285308 0.658347 2.364322 1.590343 6.222751 -16.615169 -0.751377 18.610548 -9.652475 61.613012 7.403085 0.000000 0.000000 0.000000 
-8.141155 79.639465 9.721254 0.000000 0.000000 0.000000 -9.688062 -2.252251 1.704350 -56.836477 5.648312 21.111411 45.889855 -14.780009 -1.765358 -7.640501 -13.525407 -18.973591 0.000000 0.000000 0.000000 14.520962 -27.248662 -1.183214 -11.788543 -13.834342 -20.603151 35.944591 5.839010 2.987406 -21.685760 -1.743526 18.201184 0.000000 0.000000 0.000000 1.532895 -14.558912 2.314286 -13.314843 -23.061324 -0.082999 27.492676 -3.915023 1.670845 17.964536 -2.451136 -1.050862 0.000000 0.000000 0.000000 9.754390 -0.344262 -0.208564 1.714537 0.076573 1.685053 0.000000 0.000000 0.000000 12.344151 -2.638087 -0.592369 1.157269 -17.776155 0.151533 -26.613672 -1.739478 -34.800005 -6.063783 -45.502850 -0.073026 0.000000 0.000000 0.000000 12.347474 1.331077 0.595769 2.022242 2.196772 6.023341 -16.615407 -1.790910 19.319907 -9.549513 60.271577 7.380389 0.000000 0.000000 0.000000 
-7.672345 79.580254 9.576969 0.000000 0.000000 0.000000 -9.746986 -2.558565 1.547568 -57.038251 5.635549 21.034315 46.635094 -14.770349 -1.606183 -6.966548 -13.696511 -18.849683 0.000000 0.000000 0.000000 14.354116 -27.589490 -1.268283 -11.995795 -13.891540 -20.757998 35.885032 5.627681 2.954594 -21.456131 -1.818081 18.076678 0.000000 0.000000 0.000000 1.494866 -15.135663 2.228381 -13.066276 -23.183921 -0.798208 26.338575 -3.597685 1.360206 17.111453 -2.205750 -1.106738 0.000000 0.000000 0.000000 8.750915 -0.061446 0.012559 1.295807 0.250267 1.760131 0.000000 0.000000 0.000000 11.421335 -2.484844 -0.736730 0.943010 -17.162814 -0.051899 -26.164954 -1.215977 -35.720766 -6.002922 -44.424814 -0.618783 0.000000 0.000000 0.000000 11.283486 1.421770 0.546610 1.635494 2.939504 5.997043 -16.730279 -2.828266 20.361132 -9.671106 58.876169 7.677779 0.000000 0.000000 0.000000 
